<svg id="Layer_1" data-name="Layer 1" xmlns="http://www.w3.org/2000/svg" xmlns:xlink="http://www.w3.org/1999/xlink" width="1120" height="728" viewBox="0 0 1120 728"><defs><clipPath id="clip-path"><rect x="286.821" y="402.435" width="150.111" height="87.595" rx="18.865" fill="none"/></clipPath><clipPath id="clip-path-2"><path d="M624.9,678.135H562.241v12.7a15.643,15.643,0,0,1-9.755,14.332,25.069,25.069,0,0,0-15.307,23.092H624.9Z" fill="none"/></clipPath><clipPath id="clip-path-3"><path d="M624.9,678.135H687.55v12.7a15.642,15.642,0,0,0,9.755,14.332,25.068,25.068,0,0,1,15.306,23.092H624.9Z" fill="none"/></clipPath><clipPath id="clip-path-4"><path d="M412.554,274.537l38.153,38.153-19.168,16.274-36.706-36.706a12.53,12.53,0,0,1,0-17.721h0A12.53,12.53,0,0,1,412.554,274.537Z" fill="none"/></clipPath><clipPath id="clip-path-5"><path d="M372.57,301.99h53.956l-2.046,25.062H372.57a12.531,12.531,0,0,1-12.531-12.531h0A12.531,12.531,0,0,1,372.57,301.99Z" fill="none"/></clipPath><clipPath id="clip-path-6"><path d="M397.854,366.165a12.531,12.531,0,0,0,17.721-17.722,12.531,12.531,0,1,1,17.722,0,12.531,12.531,0,0,0,17.721,17.722h0a37.593,37.593,0,1,0-53.164,0Z" fill="none"/></clipPath><clipPath id="clip-path-7"><path d="M325.329,49.187a12.53,12.53,0,0,0,0,17.721,12.532,12.532,0,1,0-17.722,17.723,12.531,12.531,0,1,0-17.722,17.721l26.585,26.585a25.062,25.062,0,0,0,35.444,0l17.722-17.722,17.721-17.722L343.051,49.187A12.531,12.531,0,0,0,325.329,49.187Z" fill="none"/></clipPath><clipPath id="clip-path-8"><circle cx="480.744" cy="95.361" r="19.176" fill="none"/></clipPath><clipPath id="clip-path-9"><path d="M467.184,108.92a25.061,25.061,0,0,1,0,35.443A25.063,25.063,0,0,1,467.184,108.92Z" fill="none"/></clipPath><clipPath id="clip-path-10"><path d="M431.742,108.92a25.062,25.062,0,0,1,35.442,0A25.06,25.06,0,0,1,431.742,108.92Z" fill="none"/></clipPath><clipPath id="clip-path-11"><path d="M700.122,252.074a12.531,12.531,0,0,1,12.531,12.531,12.532,12.532,0,0,1,25.063,0,12.531,12.531,0,0,1,25.062,0v37.6a25.062,25.062,0,0,1-25.062,25.062H687.591V264.605A12.531,12.531,0,0,1,700.122,252.074Z" fill="none"/></clipPath></defs><title>Artboard 3 copy</title><rect x="-75.868" y="-161.594" width="1311.736" height="889.594" fill="#1c1c20"/><path d="M800.393,126.278v75.413H775.309v50.124h25.084a50.123,50.123,0,0,0,50.123-50.123h0V126.278Z" fill="#ff2842"/><rect x="800.393" y="126.278" width="50.123" height="12.531" fill="#cb2a3f"/><polygon points="825.454 76.154 787.862 126.278 863.047 126.278 825.454 76.154" fill="#ff2842"/><polygon points="850.516 151.703 825.454 151.703 850.516 176.765 850.516 151.703" fill="#1c1c20"/><path d="M850.516,176.765V151.7h12.812a13.709,13.709,0,0,0,13.406-10.77A50.373,50.373,0,0,1,925.7,101.216h6.723a50.124,50.124,0,1,1,1.459,52.5,85.307,85.307,0,0,1-58.305,23.054Z" fill="#4a4a4e"/><circle cx="929.246" cy="188.932" r="12.531" fill="#4a4a4e"/><rect x="775.309" y="201.691" width="25.083" height="50.124" fill="#cb2a3f"/><path d="M374.273,58.043v75.189L349.22,115.938V58.043a12.527,12.527,0,0,1,12.527-12.527h0A12.526,12.526,0,0,1,374.273,58.043Z" fill="#ffa511"/><rect x="775.238" y="427.382" width="150.37" height="250.753" fill="#f3f3f3"/><polygon points="775.238 678.135 775.238 377.259 835.809 678.135 775.238 678.135" fill="#d8d8d9"/><rect x="887.967" y="427.382" width="37.642" height="250.753" fill="#636367"/><rect x="887.967" y="477.641" width="37.642" height="75.564" fill="#97979a"/><rect x="775.287" y="477.641" width="62.556" height="150.37" fill="#fff"/><polygon points="906.788 439.913 897.378 452.444 916.198 452.444 906.788 439.913" fill="#1c1c20"/><polygon points="906.788 665.604 916.198 653.073 897.378 653.073 906.788 665.604" fill="#1c1c20"/><path d="M775.238,678.135H963.251A25.062,25.062,0,0,1,988.313,703.2v0a25.062,25.062,0,0,1-25.062,25.062H775.238a0,0,0,0,1,0,0V678.135a0,0,0,0,1,0,0Z" fill="#97979a"/><rect x="775.238" y="678.135" width="12.433" height="50.123" fill="#7a7a7a"/><rect x="775.238" y="690.668" width="187.963" height="25.157" fill="#1c1c20"/><circle cx="963.202" cy="703.246" r="12.58" fill="#d8d8d9"/><circle cx="863.004" cy="703.246" r="12.58" fill="#d8d8d9"/><circle cx="863.004" cy="703.247" r="6.315" fill="#1c1c20"/><circle cx="963.251" cy="703.247" r="6.315" fill="#1c1c20"/><rect x="775.238" y="377.259" width="150.37" height="50.123" fill="#97979a"/><circle cx="900.547" cy="402.456" r="12.58" fill="#ff2842"/><circle cx="850.424" cy="402.456" r="12.58" fill="#036cfa"/><path d="M775.238,389.876h25.086a12.555,12.555,0,0,1,12.555,12.555v0a12.555,12.555,0,0,1-12.555,12.555H775.238a0,0,0,0,1,0,0V389.876A0,0,0,0,1,775.238,389.876Z" fill="#fff"/><path d="M512.117,171.53v80.42H281.342A19.843,19.843,0,0,0,261.5,271.793V728.259H775.238l.137-556.724a19.949,19.949,0,0,0-19.913-19.848H531.96A19.843,19.843,0,0,0,512.117,171.53Z" fill="#4a4a4e"/><rect x="489.254" y="389.679" width="260.95" height="288.456" fill="#3e3e3f"/><polyline points="274.089 728.259 274.089 502.568 449.405 502.568 449.405 728.259" fill="#636367"/><rect x="286.562" y="527.629" width="150.37" height="150.506" fill="#1c1c20"/><path d="M248.967,405.405h0a53.073,53.073,0,0,1,0-106.145h0V274.2h0a78.134,78.134,0,0,0,0,156.268h0Z" fill="#97979a"/><polygon points="405.117 111.253 374.274 80.41 334.092 111.114 392.65 169.672 428.093 134.229 405.117 111.253" fill="#ffa511"/><path d="M441.724,147.86l-13.631-13.631L392.65,169.672l13.184,13.184a50.449,50.449,0,0,0,35.671,14.775l7.958-36.12V151.7Z" fill="#0e5dc9"/><path d="M324.154,189.3v12.53H349.2V176.765H311.622A12.532,12.532,0,0,1,324.154,189.3Z" fill="#00b5e5"/><rect x="261.5" y="45.516" width="100.247" height="131.248" fill="#b8b8ba"/><rect x="332.752" y="45.516" width="28.996" height="131.248" fill="#97979a"/><line x1="261.499" y1="114.11" x2="332.751" y2="114.11" fill="none" stroke="#97979a" stroke-miterlimit="10" stroke-width="2"/><line x1="261.499" y1="131.989" x2="332.751" y2="131.989" fill="none" stroke="#97979a" stroke-miterlimit="10" stroke-width="2"/><line x1="261.499" y1="149.867" x2="332.751" y2="149.867" fill="none" stroke="#97979a" stroke-miterlimit="10" stroke-width="2"/><line x1="261.499" y1="96.233" x2="332.751" y2="96.233" fill="none" stroke="#97979a" stroke-miterlimit="10" stroke-width="2"/><line x1="261.499" y1="78.355" x2="332.751" y2="78.355" fill="none" stroke="#97979a" stroke-miterlimit="10" stroke-width="2"/><polygon points="361.745 201.827 261.498 201.827 311.622 251.95 361.745 201.827" fill="#4a4a4e"/><path d="M449.463,151.7H410.619v13.513a62.522,62.522,0,0,0-23.81,49.14V251.95H512.117V214.358A62.654,62.654,0,0,0,449.463,151.7Z" fill="#036cfa"/><path d="M410.619,202.191V191.9H390.971a62.49,62.49,0,0,0-4.162,22.45v37.6l87.716-49.759Z" fill="#064ff4"/><rect x="299.09" y="239.419" width="25.063" height="12.531" fill="#636367"/><path d="M299.1,201.827H286.564V189.3a12.532,12.532,0,0,0-12.532-12.532h37.593A12.53,12.53,0,0,0,299.1,189.3Z" fill="#00b5e5"/><path d="M361.747,552.827a43.7,43.7,0,0,0-31,12.854l8.863,8.862a31.313,31.313,0,0,1,53.468,22.142h0v6.909a43.858,43.858,0,1,0,0,61.366v13.175h12.532v-81.45A43.859,43.859,0,0,0,361.747,552.827Zm0,112.776a31.327,31.327,0,1,1,31.327-31.327A31.326,31.326,0,0,1,361.747,665.6Z" fill="#ff2842"/><path d="M123.685,678.135H411.772A25.062,25.062,0,0,1,436.834,703.2v0a25.062,25.062,0,0,1-25.062,25.062H123.685a0,0,0,0,1,0,0V678.135A0,0,0,0,1,123.685,678.135Z" transform="translate(560.519 1406.394) rotate(180)" fill="#97979a"/><rect x="424.401" y="678.135" width="12.433" height="50.123" fill="#7a7a7a"/><rect x="148.796" y="690.668" width="288.038" height="25.157" transform="translate(585.63 1406.494) rotate(-180)" fill="#1c1c20"/><circle cx="349.192" cy="703.246" r="12.58" fill="#d8d8d9"/><circle cx="349.192" cy="703.247" r="6.315" fill="#1c1c20"/><circle cx="148.796" cy="703.246" r="12.58" fill="#d8d8d9"/><circle cx="248.994" cy="703.246" r="12.58" fill="#d8d8d9"/><circle cx="248.994" cy="703.247" r="6.315" fill="#1c1c20"/><circle cx="148.747" cy="703.247" r="6.315" fill="#1c1c20"/><rect x="248.967" y="274.197" width="12.531" height="25.063" fill="#636367"/><rect x="248.967" y="405.403" width="12.531" height="25.063" fill="#636367"/><line x1="222.244" y1="425.754" x2="230.816" y2="402.204" fill="none" stroke="#636367" stroke-miterlimit="10" stroke-width="2"/><line x1="198.744" y1="412.186" x2="214.853" y2="392.988" fill="none" stroke="#636367" stroke-miterlimit="10" stroke-width="2"/><line x1="181.301" y1="391.399" x2="203.005" y2="378.869" fill="none" stroke="#636367" stroke-miterlimit="10" stroke-width="2"/><line x1="172.02" y1="365.9" x2="196.701" y2="361.548" fill="none" stroke="#636367" stroke-miterlimit="10" stroke-width="2"/><line x1="172.019" y1="338.766" x2="196.7" y2="343.117" fill="none" stroke="#636367" stroke-miterlimit="10" stroke-width="2"/><line x1="181.3" y1="313.266" x2="203.004" y2="325.797" fill="none" stroke="#636367" stroke-miterlimit="10" stroke-width="2"/><line x1="198.743" y1="292.479" x2="214.852" y2="311.677" fill="none" stroke="#636367" stroke-miterlimit="10" stroke-width="2"/><line x1="222.243" y1="278.911" x2="230.814" y2="302.461" fill="none" stroke="#636367" stroke-miterlimit="10" stroke-width="2"/><rect x="286.562" y="515.098" width="150.371" height="12.531" fill="#d8d8d9"/><path d="M273.433,678.135l-16.708-50.124H202.832l-16.707,50.124H173L223.309,527.2h12.939l50.313,150.937Zm-21.075-63.221-22.579-67.74L207.2,614.914Z" fill="#036cfa"/><rect x="274.089" y="389.679" width="175.315" height="112.882" fill="#97979a"/><rect x="286.819" y="402.435" width="150.113" height="87.595" rx="18.865" fill="#1c1c20"/><g clip-path="url(#clip-path)"><path d="M280.965,482.1l21.914-30.272a18.476,18.476,0,0,1,29.932,0l.315.435a18.476,18.476,0,0,0,29.932,0l21.387-29.543a18.475,18.475,0,0,1,29.931,0L438.4,455.9" fill="none" stroke="#00b5e5" stroke-miterlimit="10" stroke-width="2"/></g><rect x="624.896" y="439.906" width="62.654" height="238.23" fill="#036cfa"/><rect x="562.241" y="439.906" width="62.654" height="238.23" fill="#036cfa"/><path d="M624.9,678.135H562.241v12.7a15.643,15.643,0,0,1-9.755,14.332,25.069,25.069,0,0,0-15.307,23.092H624.9Z" fill="#1c1c20"/><path d="M624.9,678.135H687.55v12.7a15.642,15.642,0,0,0,9.755,14.332,25.068,25.068,0,0,1,15.306,23.092H624.9Z" fill="#1c1c20"/><path d="M664.818,285.988l53.167,53.167,5.487-29.943-40.939-40.939c-2.113-2.113-4.7-3.668-7.471-3.668h-1.409a12.489,12.489,0,0,0-8.835,3.669h0A12.526,12.526,0,0,0,664.818,285.988Z" fill="#ffa511"/><path d="M700.08,302.133H750.2v89.778a25.062,25.062,0,0,1-39.437,20.53h0a25.063,25.063,0,0,1-10.687-20.53Z" fill="#ffce00"/><rect x="734.577" y="239.543" width="6.276" height="30.01" fill="#97979a"/><rect x="709.515" y="239.543" width="6.276" height="30.01" fill="#97979a"/><rect x="734.576" y="201.827" width="6.276" height="37.716" fill="#1c1c20"/><rect x="709.515" y="201.812" width="6.276" height="37.731" fill="#1c1c20"/><rect x="675.062" y="264.605" width="12.531" height="25.062" fill="#ff2842"/><rect x="762.778" y="264.605" width="12.531" height="25.062" fill="#ff2842"/><g clip-path="url(#clip-path-2)"><polyline points="553.525 699.46 561.574 711.765 561.048 693.677" fill="none" stroke="#646468" stroke-linecap="round" stroke-linejoin="round" stroke-width="2"/><line x1="537.179" y1="719.723" x2="627.169" y2="719.723" fill="none" stroke="#646468" stroke-linecap="round" stroke-linejoin="round" stroke-width="2"/><circle cx="582.262" cy="698.745" r="11.306" fill="none" stroke="#646468" stroke-linecap="round" stroke-linejoin="round" stroke-width="2"/></g><g clip-path="url(#clip-path-3)"><polyline points="696.265 699.46 688.216 711.765 688.742 693.677" fill="none" stroke="#646468" stroke-linecap="round" stroke-linejoin="round" stroke-width="2"/><line x1="712.611" y1="719.723" x2="621.621" y2="719.723" fill="none" stroke="#646468" stroke-linecap="round" stroke-linejoin="round" stroke-width="2"/><circle cx="667.529" cy="698.745" r="11.306" fill="none" stroke="#646468" stroke-linecap="round" stroke-linejoin="round" stroke-width="2"/></g><path d="M412.554,274.537l38.153,38.153L430.275,327.7l-35.442-35.443a12.53,12.53,0,0,1,0-17.721h0A12.53,12.53,0,0,1,412.554,274.537Z" fill="#ffa511"/><g clip-path="url(#clip-path-4)"><path d="M400.461,271.3a12.523,12.523,0,0,0,20.954,12.1l6.043-6.043" fill="none" stroke="#fff" stroke-linecap="square" stroke-miterlimit="10" stroke-width="2"/></g><path d="M526.92,302.062H426.526l14.195,17.964,6.862,32.159H526.92a25.062,25.062,0,0,0,25.062-25.061h0A25.062,25.062,0,0,0,526.92,302.062Z" fill="#ffce00"/><circle cx="424.436" cy="339.656" r="12.531" fill="#ff2842"/><circle cx="299.123" cy="339.656" r="12.531" fill="#ffce00"/><circle cx="299.123" cy="289.531" r="12.531" fill="#ff2842"/><circle cx="349.204" cy="289.531" r="12.531" fill="#fff"/><circle cx="349.204" cy="339.656" r="12.531" fill="#036cfa"/><path d="M372.57,301.99h53.956l-2.046,25.062H372.57a12.531,12.531,0,0,1-12.531-12.531h0A12.531,12.531,0,0,1,372.57,301.99Z" fill="#ffce00"/><g clip-path="url(#clip-path-5)"><path d="M361.73,308.253A12.524,12.524,0,0,0,385.1,301.99v-8.546" fill="none" stroke="#fff" stroke-linecap="square" stroke-miterlimit="10" stroke-width="2"/></g><polygon points="397.854 313.001 372.57 327.052 394.185 327.052 397.854 313.001" fill="#ffa511"/><path d="M397.854,366.165a12.531,12.531,0,0,0,17.721-17.722,12.531,12.531,0,1,1,17.722,0,12.531,12.531,0,0,0,17.721,17.722h0a37.593,37.593,0,1,0-53.164,0Z" fill="#ffce00"/><g clip-path="url(#clip-path-6)"><path d="M384.66,360.2l5.939-4.233A12.515,12.515,0,0,1,409.951,369.4l-1.794,6.729" fill="none" stroke="#fff" stroke-miterlimit="10" stroke-width="2"/><path d="M464.187,361.612l-4.308-4.308a12.524,12.524,0,0,0-20.957,12.1l1.561,5.858" fill="none" stroke="#fff" stroke-miterlimit="10" stroke-width="2"/></g><path d="M616.089,243.1l8.834,8.833h0V241.556l17.722,17.722h0a25.066,25.066,0,1,1-26.561-5.729Z" fill="#1c1c21"/><path d="M616.067,253.558l11.389,11.389a6.734,6.734,0,0,1,0,9.524l-3.894,3.895a10.6,10.6,0,0,0,0,14.99l7.85,7.85a25.06,25.06,0,0,1-15.345-47.648Z" fill="#ffce00"/><circle cx="562.241" cy="201.759" r="24.994" fill="#97979a"/><circle cx="562.241" cy="201.759" r="19.972" fill="#1c1c20"/><circle cx="624.894" cy="201.759" r="24.994" fill="#97979a"/><circle cx="624.894" cy="201.759" r="19.972" fill="#1c1c20"/><circle cx="675.04" cy="214.343" r="6.254" fill="#d8d8d9"/><circle cx="675.04" cy="189.281" r="6.254" fill="#97979a"/><path d="M568.905,201.783l.973-18.416a.038.038,0,0,0-.067-.028L557.48,197.051a6.649,6.649,0,0,0-1.608,2.666,6.674,6.674,0,0,0,12.528,4.568A6.65,6.65,0,0,0,568.905,201.783Z" fill="#ff2842"/><circle cx="562.224" cy="201.755" r="2.982" fill="#1c1c20"/><circle cx="624.894" cy="201.759" r="2.982" fill="#1c1c20"/><path d="M624.866,208.44l18.417.973a.039.039,0,0,0,.028-.068L629.6,197.015a6.644,6.644,0,0,0-2.667-1.609,6.674,6.674,0,0,0-4.568,12.529A6.65,6.65,0,0,0,624.866,208.44Z" fill="#ff2842"/><circle cx="624.894" cy="201.759" r="2.982" fill="#1c1c20"/><path d="M661.982,314.212l0,.015A62.363,62.363,0,0,0,624.9,302.062H489.254v50.123h72.987V464.968l.048.038,125.26-.038h0V396.186l23.214,16.254A25.062,25.062,0,0,0,750.2,391.954h0V378.87Z" fill="#00b5e5"/><path d="M687.551,464.968V364.717A62.655,62.655,0,0,0,624.9,302.062h0a62.656,62.656,0,0,0-62.655,62.655V464.968" fill="#00b5e5"/><path d="M687.6,333l-25.615-18.769a62.665,62.665,0,0,0-12.016-6.928v7.307a25.05,25.05,0,0,1-25.05,25.05h0a25.049,25.049,0,0,1-25.049-25.05V302.062H562.241v62.655h.076V477.645H687.551V364.717h.051Z" fill="#ff2842"/><rect x="562.317" y="440.196" width="125.233" height="12.387" fill="#fff"/><rect x="562.317" y="403.035" width="125.233" height="12.387" fill="#fff"/><path d="M674.441,477.645a37.215,37.215,0,0,0-37.013,37.441v162.9H624.9l0-200.346Z" fill="#064ff4"/><line x1="699.694" y1="101.616" x2="699.694" y2="151.687" fill="none" stroke="#646468" stroke-linecap="round" stroke-linejoin="round" stroke-width="2"/><line x1="587.341" y1="101.616" x2="587.341" y2="151.687" fill="none" stroke="#646468" stroke-linecap="round" stroke-linejoin="round" stroke-width="2"/><path d="M586.079,89.356h16.092a9.686,9.686,0,0,0,9-6.1h0a6.081,6.081,0,0,1,11.3,0l2.964,7.444a10.247,10.247,0,0,0,19.041,0l5.375-13.5a11.654,11.654,0,0,1,21.654,0L673.3,81.7a12.147,12.147,0,0,0,11.286,7.654h6.356" fill="none" stroke="#00b5e5" stroke-linecap="round" stroke-linejoin="round" stroke-width="2"/><circle cx="586.932" cy="89.058" r="12.558" fill="#97979a"/><circle cx="699.694" cy="89.058" r="12.558" fill="#97979a"/><path d="M410.122,151.7l-35.891-35.891h0L343.388,84.969l-40.182,30.705,71.743,71.742a50.445,50.445,0,0,0,35.67,14.775V151.7Z" fill="#ffce00"/><path d="M369.636,75.772,343.051,49.187a12.531,12.531,0,0,0-17.722,17.721,12.532,12.532,0,1,0-17.722,17.723,12.531,12.531,0,1,0-17.722,17.721l26.585,26.585a25.062,25.062,0,0,0,35.444,0l15.946-15.946,6.413,2.822V80.41Z" fill="#ffce00"/><g clip-path="url(#clip-path-7)"><line x1="318.653" y1="58.823" x2="348.188" y2="88.358" fill="none" stroke="#fff" stroke-linecap="round" stroke-miterlimit="10" stroke-width="2"/><line x1="300.931" y1="76.545" x2="330.466" y2="106.08" fill="none" stroke="#fff" stroke-linecap="round" stroke-miterlimit="10" stroke-width="2"/></g><circle cx="449.463" cy="126.642" r="25.062" fill="#ffce00"/><path d="M431.742,108.92a25.062,25.062,0,0,1,35.442,0A25.06,25.06,0,0,1,431.742,108.92Z" fill="#ff2842"/><circle cx="480.744" cy="95.361" r="19.176" fill="#ff2842"/><g clip-path="url(#clip-path-8)"><path d="M478.342,117.987A20.381,20.381,0,0,0,495.69,94.544a15.985,15.985,0,0,0-3.528-7.957A14.554,14.554,0,0,0,481.886,81.8a15.246,15.246,0,0,0-12.07,5.055,13.554,13.554,0,0,0-2.752,12.667,12.213,12.213,0,0,0,9.739,8.345A11.763,11.763,0,0,0,489.367,99.1a9.576,9.576,0,0,0-2.407-8.921,7.2,7.2,0,0,0-8.861-.887,5.538,5.538,0,0,0-1.854,6.736c1.159,2.257,4.513,3.153,6.452,1.516" fill="none" stroke="#db0f40" stroke-linecap="round" stroke-linejoin="round" stroke-width="2"/></g><path d="M467.184,108.92a25.061,25.061,0,0,1,0,35.443A25.063,25.063,0,0,1,467.184,108.92Z" fill="#ff2842"/><g clip-path="url(#clip-path-9)"><path d="M475.7,139.83c-3.635-3.862-6.45-8.665-6.3-13.73s3.981-10.237,9.515-11.1" fill="none" stroke="#db0f40" stroke-linecap="round" stroke-linejoin="round" stroke-width="2"/><path d="M478.439,149.061A26.21,26.21,0,0,1,465.2,133.276a23.487,23.487,0,0,1,3.366-19.525c1.249-1.816,3.221-3.674,5.575-3.376" fill="none" stroke="#db0f40" stroke-linecap="round" stroke-linejoin="round" stroke-width="2"/></g><g clip-path="url(#clip-path-10)"><path d="M430.737,102.132a21.962,21.962,0,0,0,34.218,2.221A5.034,5.034,0,0,0,466.4,101.9a2.016,2.016,0,0,0-1.229-2.321,47.424,47.424,0,0,1-7.507,4.377c-4.8,2.057-12.245,3.9-20.7-2.394-4.177-3.112,1.738-3.788-1.442-8.03" fill="none" stroke="#db0f40" stroke-linecap="round" stroke-linejoin="round" stroke-width="2"/></g><path d="M687.591,302.2v-37.6a12.531,12.531,0,0,1,25.062,0,12.532,12.532,0,0,1,25.063,0,12.531,12.531,0,0,1,25.062,0v37.6a25.062,25.062,0,0,1-25.062,25.062H715.164l-2.539,6.531-25.034-25.034Z" fill="#ffce00"/><g clip-path="url(#clip-path-11)"><line x1="711.656" y1="254.167" x2="711.656" y2="295.936" fill="none" stroke="#fff" stroke-linecap="round" stroke-miterlimit="10" stroke-width="2"/><line x1="736.719" y1="254.167" x2="736.719" y2="295.936" fill="none" stroke="#fff" stroke-linecap="round" stroke-miterlimit="10" stroke-width="2"/></g><polygon points="785.261 427.382 775.238 377.259 775.238 427.382 785.261 427.382" fill="#636367"/><polygon points="777.774 389.876 775.238 389.876 775.238 414.987 782.819 414.987 777.774 389.876" fill="#f3f3f3"/><polygon points="785.31 427.382 775.238 377.259 775.238 427.382 785.31 427.382" fill="none"/><polygon points="795.359 477.641 775.238 477.641 775.238 628.012 825.573 628.012 795.359 477.641" fill="#f3f3f3"/></svg>