<svg id="Layer_1" data-name="Layer 1" xmlns="http://www.w3.org/2000/svg" xmlns:xlink="http://www.w3.org/1999/xlink" width="1120" height="728" viewBox="0 0 1120 728"><defs><clipPath id="clip-path"><path d="M196.588,301.986a12.531,12.531,0,0,1,12.531,12.531V339.7h37.6a12.531,12.531,0,0,1,0,25.062,12.531,12.531,0,0,1,0,25.062,12.531,12.531,0,0,1,0,25.062h-37.6a25.062,25.062,0,0,1-25.062-25.062V364.761h0V314.517A12.532,12.532,0,0,1,196.588,301.986Z" fill="none"/></clipPath><clipPath id="clip-path-2"><path d="M710.652,274.533l38.153,38.153L729.636,328.96,692.93,292.254a12.532,12.532,0,0,1,0-17.721h0A12.531,12.531,0,0,1,710.652,274.533Z" fill="none"/></clipPath><clipPath id="clip-path-3"><path d="M672.712,301.986h51.912l-2.047,25.062H672.712a12.531,12.531,0,0,1-12.531-12.531h0A12.531,12.531,0,0,1,672.712,301.986Z" fill="none"/></clipPath><clipPath id="clip-path-4"><path d="M695.952,366.161a12.531,12.531,0,0,0,17.721-17.721,12.531,12.531,0,1,1,17.722,0,12.531,12.531,0,0,0,17.721,17.721h0a37.593,37.593,0,1,0-53.164,0Z" fill="none"/></clipPath><clipPath id="clip-path-5"><rect x="823.083" y="452.357" width="62.589" height="225.437" fill="none"/></clipPath><clipPath id="clip-path-6"><rect x="873.207" y="452.357" width="62.589" height="225.437" fill="none"/></clipPath><clipPath id="clip-path-7"><path d="M757.667,352.95l-8.551-22.232L731.4,348.439a12.531,12.531,0,0,0,17.721,17.722h0A37.442,37.442,0,0,0,757.667,352.95Z" fill="none"/></clipPath><clipPath id="clip-path-8"><path d="M885.737,364.52a12.532,12.532,0,0,0-12.531,12.531v25.182h-37.6a12.531,12.531,0,1,0,0,25.062,12.531,12.531,0,1,0,0,25.062,12.531,12.531,0,1,0,0,25.062h37.6a25.062,25.062,0,0,0,25.062-25.062V427.3h0V377.051A12.531,12.531,0,0,0,885.737,364.52Z" fill="none"/></clipPath><clipPath id="clip-path-9"><rect x="873.207" y="677.794" width="62.588" height="50.124" fill="none"/></clipPath><clipPath id="clip-path-10"><path d="M823.083,677.794a25.2,25.2,0,0,1-24.938,25.092h0c-.064,0-.126.007-.19.007h-.115a24.979,24.979,0,0,0-24.881,25.145l100.248-.12V677.794Z" fill="none"/></clipPath></defs><title>Artboard 3 copy 2</title><rect x="-67.004" y="-161.594" width="1304.009" height="889.594" fill="#f7f7f7"/><rect x="622.588" y="201.84" width="375.928" height="250.517" fill="#d8d8d9"/><rect x="309.315" y="201.84" width="154.653" height="250.517" fill="#d8d8d9"/><polygon points="998.528 477.415 597.526 477.415 597.526 728.038 998.514 728.038 998.528 477.415" fill="#97979a"/><polyline points="772.959 728.038 772.959 502.481 898.269 502.481 898.269 728.038" fill="none" stroke="#c7c7c8" stroke-miterlimit="10" stroke-width="2"/><polyline points="622.588 728.038 622.588 502.481 747.898 502.481 747.898 728.038" fill="none" stroke="#c7c7c8" stroke-miterlimit="10" stroke-width="2"/><line x1="722.836" y1="577.667" x2="722.836" y2="627.79" fill="none" stroke="#c7c7c8" stroke-miterlimit="10" stroke-width="2"/><line x1="798.021" y1="577.667" x2="798.021" y2="627.79" fill="none" stroke="#c7c7c8" stroke-miterlimit="10" stroke-width="2"/><rect x="121.351" y="477.419" width="476.176" height="250.619" fill="#d8d8d9"/><polygon points="998.516 164.221 622.628 164.221 622.628 151.664 998.504 151.664 998.516 164.221" fill="#1c1c21"/><circle cx="660.181" cy="114.022" r="37.593" fill="#ffce00"/><polyline points="650.639 130.618 672.701 114.053 650.639 97.229" fill="none" stroke="#1c1c21" stroke-linecap="square" stroke-miterlimit="10" stroke-width="2"/><circle cx="860.676" cy="114.022" r="37.593" fill="#036cfa"/><line x1="848.145" y1="114.022" x2="873.207" y2="114.022" fill="none" stroke="#fff" stroke-linecap="square" stroke-miterlimit="10" stroke-width="2"/><line x1="848.145" y1="101.393" x2="873.207" y2="101.393" fill="none" stroke="#fff" stroke-linecap="square" stroke-miterlimit="10" stroke-width="2"/><line x1="848.145" y1="126.455" x2="873.207" y2="126.455" fill="none" stroke="#fff" stroke-linecap="square" stroke-miterlimit="10" stroke-width="2"/><rect x="722.836" y="76.331" width="75.284" height="75.284" fill="#ff2842"/><polyline points="777.171 101.442 760.428 88.862 743.783 101.442" fill="none" stroke="#fff" stroke-linecap="square" stroke-miterlimit="10" stroke-width="2"/><polyline points="743.784 126.504 760.428 139.084 777.172 126.504" fill="none" stroke="#fff" stroke-linecap="square" stroke-miterlimit="10" stroke-width="2"/><rect x="923.331" y="76.331" width="75.186" height="75.186" fill="#00b5e5"/><rect x="923.331" y="76.331" width="75.186" height="75.186" fill="#00b5e5"/><circle cx="960.923" cy="113.924" r="25.062" fill="none" stroke="#fff" stroke-linecap="square" stroke-miterlimit="10" stroke-width="2"/><circle cx="960.923" cy="113.924" r="12.482" fill="none" stroke="#fff" stroke-linecap="square" stroke-miterlimit="10" stroke-width="2"/><polygon points="463.968 214.269 445.664 214.269 397.03 214.269 443.298 245.115 463.968 214.269" fill="#ffce00"/><rect x="422.092" y="214.274" width="12.69" height="12.527" fill="#ffa511"/><polygon points="397.03 214.269 321.875 326.927 311.91 342.753 296.783 364.641 363.613 364.641 455.573 226.702 422.251 226.8 397.03 214.269" fill="#fff"/><rect x="397.03" y="176.677" width="75.186" height="12.531" fill="#ffa511"/><rect x="459.685" y="176.677" width="12.531" height="18.66" fill="#ffce00"/><path d="M309.259,302.088h0a62.654,62.654,0,0,0-62.654,62.654V477.4H371.914V364.742A62.654,62.654,0,0,0,309.259,302.088Z" fill="#fff"/><path d="M309.369,301.978h0a62.654,62.654,0,0,0-62.655,62.654l-.081,83.482L221.6,476.82l150.326.6.1-112.786A62.655,62.655,0,0,0,309.369,301.978Z" fill="#fff"/><polygon points="221.598 477.419 265.505 477.482 265.505 433.628 221.652 433.628 221.598 477.419" fill="#f3f3f3"/><polygon points="296.782 502.406 296.812 502.406 296.782 502.24 296.782 502.406" fill="#00b5e5"/><path d="M321.871,350.333a77.277,77.277,0,0,1,12.993-42.877,62.218,62.218,0,0,0-22.317-5.391l-.157-.007q-1.529-.075-3.076-.078t-3.076.078l-.156.007a62.223,62.223,0,0,0-22.3,5.382l.006.009a77.277,77.277,0,0,1,12.993,42.877l.021,127.063H321.85Z" fill="#00b5e5"/><polygon points="321.875 326.927 338.519 301.978 309.325 301.978 309.325 328.96 320.595 328.96 321.875 326.927" fill="#00b5e5"/><circle cx="459.685" cy="176.677" r="12.531" fill="#ffce00"/><circle cx="434.623" cy="176.677" r="12.531" fill="#ffce00"/><circle cx="409.561" cy="176.677" r="12.531" fill="#ffce00"/><path d="M422.251,239.331a25.062,25.062,0,0,1-25.062-25.062h25.062Z" fill="#ffa511"/><circle cx="422.251" cy="226.8" r="12.531" fill="#ffce00"/><path d="M468.545,167.816a12.53,12.53,0,0,1-17.721,0" fill="none" stroke="#fff" stroke-miterlimit="10" stroke-width="2"/><path d="M443.484,167.816a12.531,12.531,0,0,1-17.722,0" fill="none" stroke="#fff" stroke-miterlimit="10" stroke-width="2"/><path d="M418.422,167.816a12.531,12.531,0,0,1-17.722,0" fill="none" stroke="#fff" stroke-miterlimit="10" stroke-width="2"/><path d="M413.391,235.661a12.532,12.532,0,0,1,17.721,0" fill="none" stroke="#fff" stroke-miterlimit="10" stroke-width="2"/><path d="M518.4,139.083h0a16.465,16.465,0,0,0-11.97,5.16l-42.466,44.964H397.03V214.27h66.938l42.466,44.963a16.462,16.462,0,0,0,11.97,5.16h0a16.466,16.466,0,0,0,16.466-16.465V155.549A16.467,16.467,0,0,0,518.4,139.083Z" fill="#d8d8d9"/><path d="M397.03,201.738V214.27h66.938l42.466,44.963a16.465,16.465,0,0,0,28.436-11.305v-46.19Z" fill="#1c1c21"/><rect x="346.907" y="301.978" width="250.619" height="175.44" fill="#1c1c21"/><path d="M559.887,327.067h-162.9a12.55,12.55,0,0,1-12.55-12.55l.062-87.807a12.531,12.531,0,0,1,12.531-12.531V201.648a25.062,25.062,0,0,0-25.062,25.062l-.062,100.357h0V339.6a12.531,12.531,0,0,0,12.531,12.531H559.472a12.8,12.8,0,0,0,12.944-12.3A12.532,12.532,0,0,0,559.887,327.067Z" fill="#ff2842"/><rect x="372.023" y="427.295" width="125.255" height="25.062" rx="12.531" fill="#ffce00"/><path d="M447.155,389.742a12.531,12.531,0,0,0,12.531,12.531H559.933a12.531,12.531,0,0,0,12.531-12.531h0a12.531,12.531,0,0,0-12.531-12.531H459.686a12.531,12.531,0,0,0-12.531,12.531Z" fill="#036cfa"/><path d="M384.5,402.273h25.062a12.531,12.531,0,0,0,12.531-12.531h0a12.531,12.531,0,0,0-12.531-12.531H384.5a12.531,12.531,0,0,0-12.531,12.531h0A12.532,12.532,0,0,0,384.5,402.273Z" fill="#036cfa"/><circle cx="309.259" cy="276.924" r="25.062" fill="#ffce00"/><path d="M330.879,264.273h.012a25.057,25.057,0,0,0-43.263,0h.012a24.913,24.913,0,0,0-3.443,12.651,6.281,6.281,0,0,0,6.281-6.281v-6.37h37.563v6.37a6.281,6.281,0,0,0,6.28,6.281A24.912,24.912,0,0,0,330.879,264.273Z" fill="#1c1c21"/><path d="M309.259,251.862h25.093a12.412,12.412,0,0,1-12.411,12.411h-6.284" fill="#1c1c21"/><rect x="209.119" y="327.048" width="25.01" height="37.713" fill="#d8d8d9"/><circle cx="221.598" cy="433.512" r="43.907" fill="#d8d8d9"/><path d="M177.691,433.512a43.907,43.907,0,1,0,87.378-6.217H178.127A44.268,44.268,0,0,0,177.691,433.512Z" fill="#036cfa"/><path d="M196.588,301.986a12.531,12.531,0,0,1,12.531,12.531V339.7h37.6a12.531,12.531,0,0,1,0,25.062,12.531,12.531,0,0,1,0,25.062,12.531,12.531,0,0,1,0,25.062h-37.6a25.062,25.062,0,0,1-25.062-25.062V364.761h0V314.517A12.532,12.532,0,0,1,196.588,301.986Z" fill="#ffce00"/><g clip-path="url(#clip-path)"><path d="M177.965,327.048h6.092a12.524,12.524,0,0,0,6.266-23.372l-5.246-3.038" fill="none" stroke="#fff" stroke-linecap="round" stroke-miterlimit="10" stroke-width="2"/><polyline points="209.119 339.699 196.588 338.702 209.119 327.048 209.119 338.702" fill="#ffa511"/><line x1="257.153" y1="363.764" x2="215.385" y2="363.764" fill="none" stroke="#fff" stroke-linecap="round" stroke-miterlimit="10" stroke-width="2"/><line x1="257.153" y1="388.826" x2="215.385" y2="388.826" fill="none" stroke="#fff" stroke-linecap="round" stroke-miterlimit="10" stroke-width="2"/><line x1="209.119" y1="338.702" x2="196.588" y2="338.702" fill="none" stroke="#fff" stroke-linecap="round" stroke-miterlimit="10" stroke-width="2"/></g><polyline points="561.232 451.243 571.464 439.915 561.232 428.41" fill="none" stroke="#fff" stroke-linecap="round" stroke-linejoin="round" stroke-width="2"/><polyline points="532.573 428.41 522.341 439.738 532.573 451.243" fill="none" stroke="#fff" stroke-linecap="round" stroke-linejoin="round" stroke-width="2"/><line x1="552.615" y1="428.41" x2="541.19" y2="451.243" fill="none" stroke="#fff" stroke-linecap="round" stroke-linejoin="round" stroke-width="2"/><polyline points="447.155 728.038 447.155 502.481 572.464 502.481 572.464 728.038" fill="none" stroke="#f3f3f3" stroke-miterlimit="10" stroke-width="2"/><polyline points="296.784 728.038 296.784 502.481 422.093 502.481 422.093 728.038" fill="none" stroke="#f3f3f3" stroke-miterlimit="10" stroke-width="2"/><polyline points="146.412 728.038 146.412 502.481 271.722 502.481 271.722 728.038" fill="none" stroke="#f3f3f3" stroke-miterlimit="10" stroke-width="2"/><line x1="246.66" y1="577.667" x2="246.66" y2="627.79" fill="none" stroke="#f3f3f3" stroke-miterlimit="10" stroke-width="2"/><line x1="321.846" y1="577.667" x2="321.846" y2="627.79" fill="none" stroke="#f3f3f3" stroke-miterlimit="10" stroke-width="2"/><line x1="472.217" y1="577.667" x2="472.217" y2="627.79" fill="none" stroke="#f3f3f3" stroke-miterlimit="10" stroke-width="2"/><path d="M209.119,214.27H171.481A12.53,12.53,0,0,0,158.95,226.8h0a12.531,12.531,0,0,0,12.531,12.531h37.638A12.531,12.531,0,0,0,221.65,226.8h0A12.53,12.53,0,0,0,209.119,214.27Z" fill="#1c1c21"/><circle cx="171.465" cy="226.8" r="12.531" fill="#ff2842"/><circle cx="246.66" cy="139.084" r="12.531" fill="#d8d8d9"/><path d="M259.191,189.208h50.124a12.532,12.532,0,0,0,12.531-12.531h0a12.531,12.531,0,0,0-12.531-12.531H259.191a12.531,12.531,0,0,0-12.531,12.531h0A12.531,12.531,0,0,0,259.191,189.208Z" fill="#1c1c21"/><circle cx="309.315" cy="176.677" r="12.531" fill="#036cfa"/><circle cx="246.721" cy="251.862" r="12.531" fill="#d8d8d9"/><path d="M234.189,214.27A12.531,12.531,0,0,0,246.72,226.8h37.533a12.531,12.531,0,1,0,0-25.062H246.72A12.531,12.531,0,0,0,234.189,214.27Z" fill="#97979a"/><path d="M134.3,164.146h47.459a10.5,10.5,0,0,0,9.437-5.614,12.527,12.527,0,0,1,11.2-6.917h19.2a12.526,12.526,0,0,1,12.527,12.527v0a12.53,12.53,0,0,1-12.53,12.531H211.31A12.391,12.391,0,0,0,200.679,183a12.52,12.52,0,0,1-10.816,6.207H133.884a12.529,12.529,0,0,1-12.525-12.766A12.8,12.8,0,0,1,134.3,164.146Z" fill="#97979a"/><circle cx="133.888" cy="176.677" r="12.531" fill="#ffce00"/><path d="M308.9,114.022H296.784a12.531,12.531,0,0,1-12.531-12.531h0A12.531,12.531,0,0,0,271.722,88.96H247.073a12.8,12.8,0,0,0-12.945,12.3,12.532,12.532,0,0,0,12.529,12.766h12.534a12.531,12.531,0,0,1,12.531,12.531h0a12.531,12.531,0,0,0,12.531,12.531h25.062a12.531,12.531,0,0,0,12.528-12.766A12.8,12.8,0,0,0,308.9,114.022Z" fill="#97979a"/><path d="M246.66,276.925H233.716a12.531,12.531,0,0,1-12.531-12.531h0a12.531,12.531,0,0,0-12.531-12.531H196.536a12.8,12.8,0,0,0-12.944,12.3,12.53,12.53,0,0,0,12.529,12.765h0a12.531,12.531,0,0,1,12.531,12.531h0a12.531,12.531,0,0,0,12.531,12.531h25.89A12.53,12.53,0,0,0,259.6,289.222,12.8,12.8,0,0,0,246.66,276.925Z" fill="#d8d8d9"/><rect x="146.412" y="113.924" width="75.192" height="25.062" rx="12.531" fill="#d8d8d9"/><polygon points="885.972 301.986 733.205 301.986 747.979 352.11 885.972 352.11 885.972 301.986" fill="#fff"/><circle cx="885.973" cy="276.924" r="25.062" fill="#ffce00"/><path d="M903.694,294.646a25.063,25.063,0,0,0,0-35.443h0a25.061,25.061,0,0,0,0,35.442Z" fill="#1c1c21"/><path d="M903.694,259.2a25.061,25.061,0,0,0-35.443,0h0a25.063,25.063,0,0,0,35.443,0Z" fill="#1c1c21"/><circle cx="916.258" cy="246.638" r="17.769" fill="#1c1c21"/><rect x="710.297" y="377.172" width="25.078" height="37.593" fill="#fff"/><path d="M710.652,274.533l38.153,38.153L728.373,327.7,692.93,292.254a12.532,12.532,0,0,1,0-17.721h0A12.531,12.531,0,0,1,710.652,274.533Z" fill="#ffce00"/><polygon points="702.663 301.986 722.836 301.986 692.93 292.254 702.663 301.986" fill="#ffa511"/><g clip-path="url(#clip-path-2)"><path d="M698.558,271.3a12.524,12.524,0,0,0,20.955,12.1l6.043-6.043" fill="none" stroke="#fff" stroke-linecap="square" stroke-miterlimit="10" stroke-width="2"/></g><path d="M672.712,301.986h51.912l-2.047,25.062H672.712a12.531,12.531,0,0,1-12.531-12.531h0A12.531,12.531,0,0,1,672.712,301.986Z" fill="#ffce00"/><g clip-path="url(#clip-path-3)"><path d="M661.872,308.249a12.524,12.524,0,0,0,23.371-6.263v-8.594" fill="none" stroke="#fff" stroke-linecap="square" stroke-miterlimit="10" stroke-width="2"/></g><polygon points="701.65 308.313 672.712 327.048 692.283 327.048 701.65 308.313" fill="#ffa511"/><path d="M710,339.621a12.531,12.531,0,0,1,25.062,0l0,30.21H710Z" fill="#1c1c21"/><rect x="697.774" y="365.768" width="50.124" height="11.404" fill="#1c1c21"/><path d="M695.952,366.161a12.531,12.531,0,0,0,17.721-17.721,12.531,12.531,0,1,1,17.722,0,12.531,12.531,0,0,0,17.721,17.721h0a37.593,37.593,0,1,0-53.164,0Z" fill="#ffce00"/><g clip-path="url(#clip-path-4)"><path d="M682.758,360.192l5.939-4.233A12.514,12.514,0,0,1,708.048,369.4l-1.793,6.729" fill="none" stroke="#fff" stroke-miterlimit="10" stroke-width="2"/></g><polygon points="823.083 677.794 873.207 677.794 873.206 477.419 823.083 477.299 823.083 677.794" fill="#036cfa"/><path d="M873.208,477.315l-50.123-.015h0l0,12.6h0A37.593,37.593,0,0,1,860.675,527.5v150.3H873.2Z" fill="#064ff4"/><g clip-path="url(#clip-path-5)"><line x1="890.056" y1="662.794" x2="818.127" y2="662.794" fill="none" stroke="#2b8afc" stroke-linecap="round" stroke-linejoin="round" stroke-width="2"/></g><rect x="873.207" y="452.357" width="62.589" height="225.437" fill="#036cfa"/><g clip-path="url(#clip-path-6)"><line x1="940.18" y1="662.794" x2="868.251" y2="662.794" fill="none" stroke="#2b8afc" stroke-linecap="round" stroke-linejoin="round" stroke-width="2"/><line x1="904.32" y1="662.794" x2="904.32" y2="494.015" fill="none" stroke="#2b8afc" stroke-linecap="round" stroke-linejoin="round" stroke-width="2"/></g><rect x="873.207" y="677.794" width="62.588" height="50.124" fill="#1c1c21"/><path d="M910.734,702.773H898.2a25.232,25.232,0,0,0-25.3,25.024l62.888.121A25.131,25.131,0,0,0,910.734,702.773Z" fill="#1c1c21"/><path d="M885.672,301.866h0a62.758,62.758,0,0,0-62.655,62.775V477.3L948.092,364.641A62.558,62.558,0,0,0,885.672,301.866Z" fill="#00b5e5"/><path d="M823.083,677.794a25.2,25.2,0,0,1-24.938,25.092h0c-.064,0-.126.007-.19.007h-.115a24.979,24.979,0,0,0-24.881,25.145l100.248-.12V677.794Z" fill="#1c1c21"/><path d="M906.956,305.6a29.047,29.047,0,0,0-8.687,21.324V603.114c-.3,27.357,22.466,49.5,50.124,49.506V364.65A63.443,63.443,0,0,0,906.956,305.6Z" fill="#fff"/><polygon points="948.327 427.158 898.203 452.355 898.269 477.419 948.393 477.419 948.327 427.158" fill="#f3f3f3"/><polygon points="923.265 427.293 898.203 427.293 898.203 414.644 923.265 427.293" fill="#f3f3f3"/><polygon points="848.079 452.357 822.783 452.237 822.786 477.299 847.845 477.281 848.079 452.357" fill="#f3f3f3"/><path d="M948.327,427.278h-75.12v50.141H898.2a50.14,50.14,0,0,0,50.131-50.141Z" fill="#fff"/><path d="M810.552,339.579h25.062a12.531,12.531,0,0,1,12.531,12.531v0a0,0,0,0,1,0,0H798.021a0,0,0,0,1,0,0v0A12.531,12.531,0,0,1,810.552,339.579Z" fill="#d8d8d9"/><g clip-path="url(#clip-path-7)"><path d="M762.285,361.608l-4.308-4.308a12.524,12.524,0,0,0-20.957,12.1l1.561,5.858" fill="none" stroke="#fff" stroke-miterlimit="10" stroke-width="2"/></g><path d="M710.3,402.233v25.055a12.539,12.539,0,0,0,25.077,0V402.233Z" fill="#ff2842"/><circle cx="722.836" cy="452.362" r="6.265" fill="#ff2842"/><rect x="772.959" y="352.11" width="99.947" height="125.309" fill="#1c1c21"/><path d="M885.737,364.52a12.532,12.532,0,0,0-12.531,12.531v25.182h-37.6a12.531,12.531,0,1,0,0,25.062,12.531,12.531,0,1,0,0,25.062,12.531,12.531,0,1,0,0,25.062h37.6a25.062,25.062,0,0,0,25.062-25.062V427.3h0V377.051A12.531,12.531,0,0,0,885.737,364.52Z" fill="#ffce00"/><g clip-path="url(#clip-path-8)"><path d="M904.36,389.582h-6.092A12.524,12.524,0,0,1,892,366.21l5.246-3.038" fill="none" stroke="#fff" stroke-linecap="round" stroke-miterlimit="10" stroke-width="2"/><polyline points="873.206 401.237 885.737 401.237 873.197 389.563 873.206 401.237" fill="#ffa511"/><line x1="825.173" y1="426.299" x2="866.941" y2="426.299" fill="none" stroke="#fff" stroke-linecap="round" stroke-miterlimit="10" stroke-width="2"/><line x1="825.173" y1="451.36" x2="866.941" y2="451.36" fill="none" stroke="#fff" stroke-linecap="round" stroke-miterlimit="10" stroke-width="2"/><line x1="873.206" y1="401.237" x2="885.737" y2="401.237" fill="none" stroke="#fff" stroke-linecap="round" stroke-miterlimit="10" stroke-width="2"/></g><g clip-path="url(#clip-path-9)"><path d="M912.083,702.773h-12.53a25.232,25.232,0,0,0-25.3,25.024" fill="none" stroke="#646468" stroke-linecap="round" stroke-linejoin="round" stroke-width="2"/><polyline points="893.694 696.073 921.309 696.073 893.694 689.423 913.661 685.1" fill="none" stroke="#646468" stroke-linecap="round" stroke-linejoin="round" stroke-width="2"/><line x1="863.741" y1="719.391" x2="936.605" y2="719.391" fill="none" stroke="#646468" stroke-linecap="round" stroke-linejoin="round" stroke-width="2"/></g><g clip-path="url(#clip-path-10)"><polyline points="804.741 699.128 812.789 711.434 812.263 693.346 824.074 711.434 819.166 686.44 837.571 711.434" fill="none" stroke="#646468" stroke-linecap="round" stroke-linejoin="round" stroke-width="2"/><line x1="772.959" y1="719.391" x2="874.383" y2="719.391" fill="none" stroke="#646468" stroke-linecap="round" stroke-linejoin="round" stroke-width="2"/><circle cx="858.079" cy="698.414" r="11.306" fill="none" stroke="#646468" stroke-linecap="round" stroke-linejoin="round" stroke-width="2"/></g></svg>